<svg width="73" height="467" viewBox="0 0 73 467" fill="none" xmlns="http://www.w3.org/2000/svg">
<path d="M23.091 312.381C21.8108 310.28 20.822 308.331 20.0672 306.479C16.7082 299.382 13.6583 290.506 14.1581 284.63L12.1526 282.358L6.64983 285.47C8.07181 296.929 13.1414 307.471 20.5806 314.42C22.9213 316.606 26.0553 318.489 29.5342 319.977C26.8258 317.88 24.64 314.923 23.091 312.381Z" fill="#E55242"/>
<path d="M35.5302 273.222L35.5304 273.221L35.4692 273.205L35.5302 273.222Z" fill="#E55242"/>
<path d="M18.2247 291.279C18.9301 284.715 21.6637 278.354 26.5668 271.844L25.2538 269.88L22.5632 270.876L22.9556 273.095L22.0396 273.613L20.3583 272.131L17.9544 273.713L18.9018 275.947L18.192 276.729L16.0524 275.742L14.4418 278.12L15.8643 279.656C15.8643 279.656 15.034 281.385 14.8214 284.535L14.8204 284.544C14.3993 288.932 16.1521 295.274 18.4486 301.085C17.8154 297.786 17.8623 294.645 18.2247 291.279Z" fill="#E55242"/>
<path d="M35.0208 276.755C36.5172 276.434 38.0026 276.29 39.4658 276.317C38.197 275.488 36.8902 274.783 35.5623 274.21C35.354 275.059 35.1713 275.908 35.0208 276.755Z" fill="#E55242"/>
<path d="M32.0924 266.304C31.532 266.865 29.516 268.944 27.2302 272.044L27.1973 272.088L27.1998 272.09C22.2977 278.557 19.5761 284.856 18.8769 291.35C18.3366 296.374 18.5048 300.884 20.6744 306.221C21.3529 307.718 21.632 308.348 21.632 308.348C22.2074 309.532 22.8694 310.754 23.6531 312.04C25.7822 315.535 29.1322 319.836 33.3619 321.415C41.6817 324.126 50.9654 324.632 56.0192 321.844C61.0511 319.072 61.5687 312.099 61.4339 308.189C61.2031 301.509 59.8946 292.152 54.9717 285.506C49.7417 278.651 42.4343 275.726 34.8987 277.449C34.4839 280.064 34.3456 282.67 34.4865 285.263C36.5379 288.577 39.223 291.528 42.259 293.795C43.1176 294.438 44.0057 295.025 44.8969 295.544L44.5675 296.112C43.6539 295.581 42.7451 294.98 41.8659 294.322C39.083 292.242 36.5897 289.6 34.5932 286.634C35.1479 292.657 37.1932 298.607 40.7398 304.425L41.0286 304.894L40.4718 305.243L40.1792 304.768C33.9374 294.527 32.2452 283.882 35.1516 273.127L35.1503 273.126C35.4204 272.022 36.1536 269.849 36.77 268.305L32.0924 266.304Z" fill="#E55242"/>
<path d="M49.1868 442.381C50.467 440.28 51.4558 438.331 52.2106 436.479C55.5696 429.382 58.6195 420.506 58.1198 414.63L60.1252 412.358L65.628 415.47C64.206 426.929 59.1365 437.471 51.6972 444.42C49.3566 446.606 46.2225 448.489 42.7436 449.977C45.452 447.88 47.6379 444.923 49.1868 442.381Z" fill="#E55242"/>
<path d="M36.7477 403.222L36.7474 403.221L36.8086 403.205L36.7477 403.222Z" fill="#E55242"/>
<path d="M54.0531 421.279C53.3478 414.715 50.6141 408.354 45.711 401.844L47.024 399.88L49.7146 400.876L49.3222 403.095L50.2382 403.613L51.9196 402.131L54.3235 403.713L53.376 405.947L54.0858 406.729L56.2255 405.742L57.8361 408.12L56.4135 409.656C56.4135 409.656 57.2438 411.385 57.4564 414.535L57.4574 414.544C57.8786 418.932 56.1257 425.274 53.8292 431.085C54.4625 427.786 54.4155 424.645 54.0531 421.279Z" fill="#E55242"/>
<path d="M37.2571 406.755C35.7606 406.434 34.2753 406.29 32.812 406.317C34.0808 405.488 35.3876 404.783 36.7156 404.21C36.9238 405.059 37.1065 405.908 37.2571 406.755Z" fill="#E55242"/>
<path d="M40.1855 396.304C40.7459 396.865 42.7618 398.944 45.0476 402.044L45.0806 402.088L45.0781 402.09C49.9801 408.557 52.7017 414.856 53.4009 421.35C53.9413 426.374 53.7731 430.884 51.6034 436.221C50.9249 437.718 50.6458 438.348 50.6458 438.348C50.0704 439.532 49.4084 440.754 48.6248 442.04C46.4956 445.535 43.1456 449.836 38.9159 451.415C30.5962 454.126 21.3125 454.632 16.2587 451.844C11.2267 449.072 10.7092 442.099 10.8439 438.189C11.0747 431.509 12.3832 422.152 17.3062 415.506C22.5361 408.651 29.8435 405.726 37.3791 407.449C37.7939 410.064 37.9323 412.67 37.7914 415.263C35.7399 418.577 33.0548 421.528 30.0189 423.795C29.1602 424.438 28.2721 425.025 27.381 425.544L27.7104 426.112C28.624 425.581 29.5327 424.98 30.412 424.322C33.1948 422.242 35.6882 419.6 37.6846 416.634C37.1299 422.657 35.0846 428.607 31.538 434.425L31.2493 434.894L31.806 435.243L32.0987 434.768C38.3404 424.527 40.0326 413.882 37.1262 403.127L37.1275 403.126C36.8574 402.022 36.1242 399.849 35.5078 398.305L40.1855 396.304Z" fill="#E55242"/>
<path d="M23.091 52.169C21.8108 50.0673 20.822 48.1185 20.0672 46.2667C16.7082 39.1692 13.6583 30.2939 14.1581 24.4176L12.1526 22.1459L6.64983 25.2572C8.07181 36.7164 13.1414 47.2587 20.5806 54.2071C22.9213 56.3936 26.0553 58.2762 29.5342 59.7645C26.8258 57.668 24.64 54.7103 23.091 52.169Z" fill="#E55242"/>
<path d="M35.5302 13.0101L35.5304 13.0087L35.4692 12.9928L35.5302 13.0101Z" fill="#E55242"/>
<path d="M18.2247 31.0665C18.9301 24.5021 21.6637 18.142 26.5668 11.6314L25.2538 9.66761L22.5632 10.664L22.9556 12.8829L22.0396 13.4002L20.3583 11.9183L17.9544 13.5004L18.9018 15.7345L18.192 16.5166L16.0524 15.5292L14.4418 17.9073L15.8643 19.4438C15.8643 19.4438 15.034 21.1724 14.8214 24.3231L14.8204 24.3321C14.3993 28.7192 16.1521 35.0616 18.4486 40.8725C17.8154 37.5736 17.8623 34.4328 18.2247 31.0665Z" fill="#E55242"/>
<path d="M35.0208 16.5425C36.5172 16.2217 38.0026 16.0776 39.4658 16.1045C38.197 15.2757 36.8902 14.5704 35.5623 13.9975C35.354 14.847 35.1713 15.6956 35.0208 16.5425Z" fill="#E55242"/>
<path d="M32.0924 6.09132C31.532 6.65216 29.516 8.73164 27.2302 11.8313L27.1973 11.8752L27.1998 11.8771C22.2977 18.3442 19.5761 24.6437 18.8769 31.1372C18.3366 36.1617 18.5048 40.6716 20.6744 46.0087C21.3529 47.5058 21.632 48.136 21.632 48.136C22.2074 49.3191 22.8694 50.5418 23.6531 51.8276C25.7822 55.3228 29.1322 59.6236 33.3619 61.2027C41.6817 63.9138 50.9654 64.4192 56.0192 61.6318C61.0511 58.8593 61.5687 51.8866 61.4339 47.9764C61.2031 41.2969 59.8946 31.9392 54.9717 25.2931C49.7417 18.4382 42.4343 15.5139 34.8987 17.2363C34.4839 19.8517 34.3456 22.4576 34.4865 25.0509C36.5379 28.3647 39.223 31.3151 42.259 33.5827C43.1176 34.2257 44.0057 34.8128 44.8969 35.3312L44.5675 35.8994C43.6539 35.369 42.7451 34.7674 41.8659 34.11C39.083 32.0298 36.5897 29.3874 34.5932 26.4215C35.1479 32.4449 37.1932 38.3944 40.7398 44.2126L41.0286 44.6815L40.4718 45.0304L40.1792 44.5559C33.9374 34.3147 32.2452 23.6701 35.1516 12.9143L35.1503 12.914C35.4204 11.8092 36.1536 9.6364 36.77 8.09224L32.0924 6.09132Z" fill="#E55242"/>
<path d="M49.1868 182.381C50.467 180.28 51.4558 178.331 52.2106 176.479C55.5696 169.382 58.6195 160.506 58.1198 154.63L60.1252 152.358L65.628 155.47C64.206 166.929 59.1365 177.471 51.6972 184.42C49.3566 186.606 46.2225 188.489 42.7436 189.977C45.452 187.88 47.6379 184.923 49.1868 182.381Z" fill="#E55242"/>
<path d="M36.7477 143.222L36.7474 143.221L36.8086 143.205L36.7477 143.222Z" fill="#E55242"/>
<path d="M54.0531 161.279C53.3478 154.715 50.6141 148.354 45.711 141.844L47.024 139.88L49.7146 140.876L49.3222 143.095L50.2382 143.613L51.9196 142.131L54.3235 143.713L53.376 145.947L54.0858 146.729L56.2255 145.742L57.8361 148.12L56.4135 149.656C56.4135 149.656 57.2438 151.385 57.4564 154.535L57.4574 154.544C57.8786 158.932 56.1257 165.274 53.8292 171.085C54.4625 167.786 54.4155 164.645 54.0531 161.279Z" fill="#E55242"/>
<path d="M37.2571 146.755C35.7606 146.434 34.2753 146.29 32.812 146.317C34.0808 145.488 35.3876 144.783 36.7156 144.21C36.9238 145.059 37.1065 145.908 37.2571 146.755Z" fill="#E55242"/>
<path d="M40.1855 136.304C40.7459 136.865 42.7618 138.944 45.0476 142.044L45.0806 142.088L45.0781 142.09C49.9801 148.557 52.7017 154.856 53.4009 161.35C53.9413 166.374 53.7731 170.884 51.6034 176.221C50.9249 177.718 50.6458 178.348 50.6458 178.348C50.0704 179.532 49.4084 180.754 48.6248 182.04C46.4956 185.535 43.1456 189.836 38.9159 191.415C30.5962 194.126 21.3125 194.632 16.2587 191.844C11.2267 189.072 10.7092 182.099 10.8439 178.189C11.0747 171.509 12.3832 162.152 17.3062 155.506C22.5361 148.651 29.8435 145.726 37.3791 147.449C37.7939 150.064 37.9323 152.67 37.7914 155.263C35.7399 158.577 33.0548 161.528 30.0189 163.795C29.1602 164.438 28.2721 165.025 27.381 165.544L27.7104 166.112C28.624 165.581 29.5327 164.98 30.412 164.322C33.1948 162.242 35.6882 159.6 37.6846 156.634C37.1299 162.657 35.0846 168.607 31.538 174.425L31.2493 174.894L31.806 175.243L32.0987 174.768C38.3404 164.527 40.0326 153.882 37.1262 143.127L37.1275 143.126C36.8574 142.022 36.1242 139.849 35.5078 138.305L40.1855 136.304Z" fill="#E55242"/>
</svg>
