<svg width="17" height="17" viewBox="0 0 17 17" fill="none" xmlns="http://www.w3.org/2000/svg">
<path fill-rule="evenodd" clip-rule="evenodd" d="M16.0803 15.1426C16.0803 15.6312 15.6845 16.0276 15.1961 16.0276H11.1132V9.82078H13.1959L13.5079 7.40215H11.1132V5.85754C11.1132 5.15727 11.3078 4.6801 12.3117 4.6801L13.5922 4.67966V2.51599C13.3705 2.48674 12.6106 2.42082 11.7264 2.42082C9.88023 2.42082 8.6163 3.54805 8.6163 5.6183V7.40215H6.52836V9.82078H8.6163V16.0276H0.942337C0.453958 16.0276 0.0581055 15.6312 0.0581055 15.1426V0.88494C0.0581055 0.395975 0.453958 0 0.942337 0H15.1961C15.6845 0 16.0803 0.395975 16.0803 0.88494V15.1426Z" fill="#F7F4E8"/>
</svg>
