<svg width="62" height="63" viewBox="0 0 62 63" fill="none" xmlns="http://www.w3.org/2000/svg">
<path d="M17.0494 23.8056C18.461 22.3547 19.8106 21.1673 21.1309 20.1861C26.0959 16.0545 32.5404 11.8044 37.3239 10.9971L38.7223 8.93357L35.115 5.18821C26.2782 8.67152 18.92 14.8724 14.9108 22.2239C13.6492 24.5369 12.7924 27.4197 12.3204 30.4963C13.4349 27.9087 15.3427 25.5608 17.0494 23.8056Z" fill="white"/>
<path d="M50.7956 25.6825L50.7968 25.6824L50.7969 25.6304L50.7956 25.6825Z" fill="white"/>
<path d="M32.8615 15.6006C38.2354 14.816 43.8627 15.689 50.0548 18.2594L51.3498 16.8107L50.0042 14.8717L48.3171 15.6394L47.7171 15.0159L48.5528 13.3725L46.7993 11.782L45.214 12.9951L44.4453 12.5901L44.793 10.6831L42.5682 9.88785L41.636 11.3362C41.636 11.3362 40.0887 11.0294 37.5353 11.5063L37.5279 11.5074C33.9467 12.0718 29.2538 14.7691 25.0959 17.7905C27.5939 16.6093 30.1056 16.0024 32.8615 15.6006Z" fill="white"/>
<path d="M47.8769 26.0012C48.4393 27.1275 48.8588 28.2812 49.1376 29.4523C49.5375 28.2716 49.8313 27.0859 50.0153 25.9105C49.2959 25.9189 48.5824 25.9474 47.8769 26.0012Z" fill="white"/>
<path d="M55.6017 21.5249C55.04 21.1935 52.9699 20.0142 50.0319 18.8291L49.9901 18.8119L49.9891 18.8142C43.8319 16.2358 38.2554 15.3599 32.9391 16.1349C28.8257 16.7351 25.2677 17.7941 21.4611 20.6173C20.4077 21.4648 19.9629 21.8164 19.9629 21.8164C19.1385 22.5175 18.3002 23.2956 17.4367 24.1837C15.0892 26.5967 12.3503 30.1475 11.96 33.8408C11.5068 41.0245 13.0086 48.5237 16.2657 51.9778C19.5064 55.4176 25.1671 54.3996 28.2543 53.4902C33.528 51.9362 40.714 48.9744 44.9985 43.6894C49.3863 38.1171 50.2169 31.6962 47.2992 26.0466C45.1306 26.2526 43.0264 26.6769 40.9894 27.3211C38.7704 29.6351 36.9709 32.3792 35.7872 35.2628C35.4512 36.0787 35.1657 36.9066 34.9355 37.7228L34.4153 37.577C34.6504 36.7404 34.9432 35.8931 35.2866 35.0578C36.3728 32.4143 37.9664 29.886 39.9195 27.6873C35.235 29.3647 30.9151 32.2144 27.0077 36.2331L26.6935 36.5593L26.3013 36.1873L26.6193 35.8569C33.4972 28.784 41.6297 25.2525 50.794 25.3615L50.7939 25.3604C51.7295 25.3489 53.6107 25.4873 54.9672 25.6616L55.6017 21.5249Z" fill="white"/>
</svg>
