<svg width="60" height="64" viewBox="0 0 60 64" fill="none" xmlns="http://www.w3.org/2000/svg">
<path d="M19.1316 43.7024C18.0785 41.9734 17.2651 40.3703 16.6442 38.8469C13.8809 33.0082 11.372 25.7071 11.7831 20.873L10.1333 19.0042L5.6065 21.5637C6.77628 30.9905 10.9467 39.663 17.0665 45.379C18.992 47.1777 21.5702 48.7264 24.4321 49.9508C22.204 48.226 20.4059 45.793 19.1316 43.7024Z" fill="white"/>
<path d="M29.3654 11.4891L29.3656 11.4879L29.3145 11.4746L29.3654 11.4891Z" fill="white"/>
<path d="M15.1283 26.3426C15.7086 20.9424 17.9574 15.7103 21.9909 10.3544L20.9107 8.73896L18.6973 9.55861L19.0201 11.384L18.2666 11.8096L16.8835 10.5904L14.9059 11.8919L15.6853 13.7298L15.1014 14.3732L13.3413 13.5609L12.0163 15.5173L13.1866 16.7812C13.1866 16.7812 12.5036 18.2033 12.3286 20.7951L12.3278 20.8025C11.9813 24.4116 13.4233 29.6291 15.3125 34.4093C14.7916 31.6955 14.8302 29.1117 15.1283 26.3426Z" fill="white"/>
<path d="M28.9455 14.3947C30.1766 14.1308 31.3985 14.0123 32.6022 14.0344C31.5584 13.3526 30.4834 12.7724 29.391 12.3011C29.2197 12.9999 29.0694 13.698 28.9455 14.3947Z" fill="white"/>
<path d="M26.5364 5.79713C26.0754 6.2585 24.417 7.96916 22.5367 10.519L22.5096 10.5552L22.5116 10.5567C18.479 15.8768 16.2401 21.059 15.6649 26.4009C15.2204 30.5342 15.3587 34.2442 17.1436 38.6347C17.7017 39.8663 17.9313 40.3847 17.9313 40.3847C18.4047 41.358 18.9493 42.3638 19.5939 43.4216C21.3455 46.2968 24.1013 49.8348 27.5808 51.1339C34.425 53.3642 42.0621 53.7799 46.2196 51.4869C50.359 49.2061 50.7848 43.4701 50.6739 40.2534C50.4841 34.7586 49.4076 27.0606 45.3578 21.5933C41.0555 15.9542 35.0441 13.5486 28.8451 14.9654C28.5038 17.1169 28.39 19.2607 28.5059 21.394C30.1935 24.1201 32.4024 26.5472 34.8999 28.4126C35.6062 28.9416 36.3369 29.4245 37.0699 29.851L36.7989 30.3184C36.0474 29.8821 35.2998 29.3872 34.5765 28.8464C32.2872 27.1352 30.2361 24.9614 28.5937 22.5215C29.0501 27.4766 30.7326 32.3709 33.6502 37.1572L33.8877 37.5429L33.4297 37.83L33.189 37.4396C28.0543 29.0148 26.6622 20.2581 29.0531 11.41L29.052 11.4098C29.2742 10.5009 29.8774 8.71346 30.3845 7.44317L26.5364 5.79713Z" fill="white"/>
</svg>
