<svg width="265" height="101" viewBox="0 0 265 101" fill="none" xmlns="http://www.w3.org/2000/svg">
<path d="M30.5415 54.4839C30.6396 52.3773 30.9067 50.282 31.3402 48.2182C32.5185 40.8349 34.8939 32.2209 38.4523 27.8723L38.0978 25.0087L32.0958 24.4944C27.0458 34.2633 25.3625 45.2733 27.4704 54.7327C28.1343 57.7093 29.5867 60.874 31.5207 63.9143C30.5191 60.8123 30.3938 57.3128 30.5415 54.4839Z" fill="#F7F4E8"/>
<path d="M61.3991 30.4024L61.401 30.4015L61.3604 30.3569L61.3991 30.4024Z" fill="#F7F4E8"/>
<path d="M38.0725 35.2845C42.1602 30.5057 47.7321 26.9782 55.0929 24.499L55.1172 22.2499L52.4641 21.5849L51.5794 23.5404L50.5806 23.4544L50.056 21.3857L47.3131 21.3362L46.853 23.6012L45.8739 23.8341L44.7226 21.9076L42.1771 22.912L42.4679 24.8852C42.4679 24.8852 40.8846 25.797 39.0218 28.1584V28.1649C36.3266 31.3848 34.2916 37.3138 32.9692 43.112C34.2476 40.1774 35.9749 37.7347 38.0725 35.2845Z" fill="#F7F4E8"/>
<path d="M59.0972 32.9043C60.4155 33.4407 61.6676 34.1273 62.8286 34.9505C62.2919 33.6456 61.6443 32.389 60.8927 31.1948C60.2718 31.7503 59.6732 32.3202 59.0972 32.9043Z" fill="#F7F4E8"/>
<path d="M62.419 23.1167C60.0726 23.5836 57.7625 24.2171 55.5061 25.0123L55.4566 25.0292C48.1219 27.4747 42.5903 30.961 38.5456 35.6903C35.4165 39.3468 33.1215 42.9847 31.9563 48.3414C31.6841 49.8826 31.5644 50.5288 31.5644 50.5288C31.3774 51.767 31.2427 53.0838 31.166 54.5155C30.9603 58.4068 31.2792 63.5868 33.7556 67.1041C38.8402 73.7093 45.869 79.0987 51.3417 79.6262C56.7911 80.1546 60.9508 74.9503 62.9493 71.808C66.3627 66.4354 70.37 58.3788 70.0754 50.5092C69.6527 42.3104 65.4808 36.083 58.6278 33.386C56.9125 35.193 55.394 37.1771 54.0977 39.3048C53.9243 42.9956 54.4399 46.6865 55.6184 50.1884C55.9417 51.1404 56.3201 52.0728 56.7518 52.9809L56.1907 53.2502C55.7483 52.3203 55.3605 51.3654 55.0292 50.3904C53.9482 47.1846 53.4121 43.8203 53.4431 40.4373C50.6375 45.4686 49.0477 51.2433 48.7027 57.7223L48.6765 58.245L48.0508 58.2198L48.077 57.6895C48.6793 46.2859 53.0784 37.0117 61.1518 30.1231C61.9589 29.4002 63.704 28.0872 65.0207 27.2053L62.419 23.1167Z" fill="#F7F4E8"/>
<g clip-path="url(#clip0)">
<path d="M129.88 48.6927V54.2296C129.88 55.3589 129.997 56.2251 130.235 56.8281C130.472 57.4311 130.877 57.8703 131.451 58.1456C132.024 58.4227 132.861 58.5604 133.96 58.5604C135.158 58.5604 136.118 58.5412 136.842 58.5046C137.567 58.4663 138.514 58.36 139.687 58.184V64.4353C137.565 64.8118 135.02 65 132.05 65C125.486 65 122.204 62.6525 122.204 57.9574V48.6927H117V42.2514H122.204V38.0338L129.88 36V42.2514H139.689V48.691H129.88V48.6927Z" fill="#F7F4E8"/>
<path d="M168.761 44.5674C171.195 46.3624 172.423 49.3199 172.449 53.4364V64.6216H164.774V61.8715C161.304 63.9559 157.186 64.9981 152.42 64.9981C149.4 64.9981 147.004 64.4456 145.231 63.3407C143.459 62.2358 142.574 60.5034 142.574 58.1437C142.574 55.458 143.828 53.5305 146.337 52.3629C148.845 51.1952 152.021 50.6114 155.866 50.6114C159.111 50.6114 162.08 51.0767 164.776 52.0056C164.776 50.4737 164.102 49.4768 162.754 49.0115C161.406 48.5479 159.696 48.3144 157.624 48.3144C154.13 48.3144 150.597 48.7797 147.028 49.7086L144.407 44.1718C149.098 42.6398 153.605 41.8748 157.922 41.8748C162.714 41.8748 166.326 42.7723 168.761 44.5674ZM164.772 56.1482C162.7 55.5208 160.141 55.2071 157.097 55.2071C154.752 55.2071 153.029 55.3901 151.931 55.7526C150.833 56.1168 150.283 56.7512 150.283 57.654C150.283 58.4818 150.62 59.0168 151.293 59.2538C151.967 59.4926 153.102 59.6111 154.701 59.6111C156.248 59.6111 157.946 59.4107 159.793 59.0081C161.64 58.6073 163.3 58.1036 164.772 57.5023V56.1482Z" fill="#F7F4E8"/>
<path d="M206.593 51.894L206.555 64.6234H198.88V54.9439C198.88 52.7341 198.418 51.122 197.494 50.1042C196.571 49.0882 194.973 48.5793 192.702 48.5793C191.03 48.5793 189.345 48.9435 187.648 49.672C185.951 50.4005 184.617 51.2788 183.643 52.3088V64.6251H175.93V42.2512H183.643V45.6793C187.037 43.1435 190.982 41.8748 195.474 41.8748C202.862 41.8748 206.567 45.2139 206.593 51.894Z" fill="#F7F4E8"/>
<path d="M221.944 48.6927V54.2296C221.944 55.3589 222.062 56.2251 222.299 56.8281C222.536 57.4311 222.942 57.8703 223.515 58.1456C224.089 58.4227 224.925 58.5604 226.024 58.5604C227.223 58.5604 228.183 58.5412 228.907 58.5046C229.631 58.4663 230.579 58.36 231.751 58.184V64.4353C229.629 64.8118 227.084 65 224.115 65C217.55 65 214.267 62.6525 214.267 57.9574V48.6927H209.062V42.2514H214.267V38.0338L221.944 36V42.2514H231.753V48.691H221.944V48.6927Z" fill="#F7F4E8"/>
<path d="M238.435 62.2136C235.778 60.3557 234.449 57.4296 234.449 53.4386C234.449 49.4459 235.778 46.5215 238.435 44.6637C241.093 42.8059 244.856 41.877 249.724 41.877C254.591 41.877 258.354 42.8059 261.012 44.6637C263.669 46.5215 264.998 49.4476 264.998 53.4386C264.998 57.4313 263.669 60.3557 261.012 62.2136C258.354 64.0714 254.591 65.0003 249.724 65.0003C244.858 65.0003 241.095 64.0714 238.435 62.2136ZM255.49 57.4296C256.713 56.6767 257.325 55.3452 257.325 53.4369C257.325 51.5285 256.713 50.1988 255.49 49.4441C254.267 48.6913 252.346 48.3148 249.724 48.3148C247.127 48.3148 245.218 48.6913 243.997 49.4441C242.773 50.197 242.162 51.5285 242.162 53.4369C242.162 55.3452 242.773 56.675 243.997 57.4296C245.22 58.1825 247.129 58.5589 249.724 58.5589C252.346 58.5607 254.267 58.1825 255.49 57.4296Z" fill="#F7F4E8"/>
</g>
<defs>
<clipPath id="clip0">
<rect width="148" height="29" fill="white" transform="translate(117 36)"/>
</clipPath>
</defs>
</svg>
