<svg width="182" height="137" viewBox="0 0 182 137" fill="none" xmlns="http://www.w3.org/2000/svg">
<path d="M15.8383 117.012V123.798C15.8383 125.183 15.9832 126.244 16.2751 126.984C16.567 127.723 17.0655 128.261 17.7707 128.598C18.4759 128.938 19.5049 129.107 20.8557 129.107C22.33 129.107 23.5103 129.083 24.4009 129.039C25.2914 128.992 26.4568 128.861 27.8992 128.645V136.308C25.2893 136.769 22.1596 137 18.5079 137C10.4353 137 6.40009 134.123 6.40009 128.368V117.012H0V109.117H6.40009V103.947L15.8383 101.454V109.117H27.9013V117.01H15.8383V117.012Z" fill="#F7F4E8"/>
<path d="M63.6516 111.956C66.645 114.156 68.1555 117.781 68.1875 122.827V136.536H58.7493V133.166C54.4818 135.72 49.4176 136.998 43.5565 136.998C39.843 136.998 36.8965 136.321 34.717 134.966C32.5374 133.612 31.4487 131.489 31.4487 128.596C31.4487 125.304 32.9912 122.942 36.0762 121.511C39.1612 120.079 43.0665 119.364 47.7941 119.364C51.7846 119.364 55.4363 119.934 58.7514 121.073C58.7514 119.195 57.9226 117.973 56.2651 117.403C54.6075 116.835 52.5047 116.548 49.9566 116.548C45.6593 116.548 41.3152 117.119 36.9263 118.257L33.7028 111.471C39.4723 109.593 45.0138 108.655 50.323 108.655C56.2161 108.655 60.6582 109.755 63.6516 111.956ZM58.7471 126.15C56.199 125.381 53.0523 124.997 49.3089 124.997C46.4242 124.997 44.3064 125.221 42.9557 125.666C41.6049 126.112 40.9296 126.89 40.9296 127.996C40.9296 129.011 41.3429 129.667 42.1717 129.957C43.0004 130.25 44.3959 130.395 46.3624 130.395C48.265 130.395 50.3529 130.149 52.624 129.656C54.8952 129.165 56.9362 128.547 58.7471 127.81V126.15Z" fill="#F7F4E8"/>
<path d="M110.175 120.936L110.129 136.539H100.69V124.674C100.69 121.966 100.121 119.99 98.9859 118.742C97.8503 117.497 95.886 116.873 93.0929 116.873C91.0369 116.873 88.9639 117.319 86.8781 118.212C84.7902 119.105 83.1497 120.182 81.9524 121.444V136.541H72.4673V109.117H81.9524V113.318C86.1261 110.21 90.9773 108.655 96.5017 108.655C105.586 108.655 110.143 112.748 110.175 120.936Z" fill="#F7F4E8"/>
<path d="M129.052 117.012V123.798C129.052 125.183 129.197 126.244 129.489 126.984C129.781 127.723 130.28 128.261 130.985 128.598C131.69 128.938 132.719 129.107 134.07 129.107C135.544 129.107 136.724 129.083 137.615 129.039C138.505 128.992 139.671 128.861 141.113 128.645V136.308C138.503 136.769 135.374 137 131.722 137C123.649 137 119.612 134.123 119.612 128.368V117.012H113.212V109.117H119.612V103.947L129.052 101.454V109.117H141.115V117.01H129.052V117.012Z" fill="#F7F4E8"/>
<path d="M149.333 133.585C146.064 131.307 144.43 127.721 144.43 122.829C144.43 117.935 146.064 114.35 149.333 112.073C152.601 109.796 157.228 108.658 163.215 108.658C169.2 108.658 173.827 109.796 177.095 112.073C180.364 114.35 181.998 117.937 181.998 122.829C181.998 127.723 180.364 131.307 177.095 133.585C173.827 135.862 169.2 137 163.215 137C157.23 137 152.603 135.862 149.333 133.585ZM170.305 127.721C171.81 126.798 172.562 125.166 172.562 122.827C172.562 120.488 171.81 118.858 170.305 117.933C168.801 117.01 166.438 116.549 163.215 116.549C160.021 116.549 157.674 117.01 156.171 117.933C154.667 118.856 153.915 120.488 153.915 122.827C153.915 125.166 154.667 126.796 156.171 127.721C157.676 128.644 160.023 129.105 163.215 129.105C166.438 129.107 168.801 128.644 170.305 127.721Z" fill="#F7F4E8"/>
<path d="M69.6343 47.1693C69.7739 44.1716 70.154 41.19 70.7708 38.2531C72.4476 27.7467 75.8278 15.489 80.8913 9.30088L80.387 5.22606L71.8461 4.49414C64.6599 18.3954 62.2645 34.0625 65.2641 47.5233C66.2089 51.7591 68.2756 56.2624 71.0277 60.5888C69.6024 56.1746 69.4241 51.1949 69.6343 47.1693Z" fill="#F7F4E8"/>
<path d="M113.542 12.8985L113.545 12.8972L113.489 12.8367L113.542 12.8985Z" fill="#F7F4E8"/>
<path d="M80.3509 19.8484C86.1677 13.0482 94.0964 8.02854 104.571 4.50067L104.606 1.30016L100.83 0.353985L99.5712 3.13663L98.1499 3.0142L97.4034 0.0705307L93.5002 0L92.8455 3.22313L91.4522 3.55449L89.814 0.813101L86.1916 2.24235L86.6055 5.05027C86.6055 5.05027 84.3525 6.34777 81.7016 9.70797V9.71729C77.8663 14.2991 74.9706 22.7362 73.0889 30.987C74.908 26.811 77.366 23.3351 80.3509 19.8484Z" fill="#F7F4E8"/>
<path d="M110.269 16.4616C112.145 17.2248 113.927 18.2018 115.579 19.3733C114.815 17.5163 113.894 15.7283 112.824 14.0289C111.94 14.8194 111.089 15.6303 110.269 16.4616Z" fill="#F7F4E8"/>
<path d="M114.996 2.53381C111.657 3.19828 108.37 4.09972 105.159 5.23128L105.088 5.25524C94.6511 8.7352 86.7796 13.6963 81.024 20.426C76.5713 25.6293 73.3056 30.806 71.6474 38.4287C71.2602 40.6218 71.0898 41.5413 71.0898 41.5413C70.8237 43.3033 70.632 45.177 70.5229 47.2144C70.2301 52.7518 70.6839 60.1229 74.2078 65.1279C81.4432 74.5271 91.4453 82.1964 99.233 82.9469C106.987 83.6988 112.907 76.2931 115.75 71.8217C120.608 64.1764 126.31 52.7118 125.891 41.5134C125.289 29.8465 119.353 20.9849 109.601 17.147C107.16 19.7184 104.999 22.5417 103.155 25.5694C102.908 30.8215 103.642 36.0736 105.319 41.0569C105.779 42.4117 106.317 43.7385 106.931 45.0306L106.133 45.4139C105.504 44.0906 104.952 42.7318 104.48 41.3444C102.942 36.7825 102.179 31.9951 102.223 27.181C98.2309 34.3405 95.9686 42.5581 95.4775 51.7776L95.4403 52.5215L94.55 52.4856L94.5872 51.7311C95.4443 35.5036 101.704 22.3064 113.193 12.5039C114.341 11.4753 116.824 9.60686 118.698 8.35194L114.996 2.53381Z" fill="#F7F4E8"/>
</svg>
